# xmcd
#
# Track frame offsets: 
#        150
#        22125
#        44417
#        65389
#        95954
#        111948
#        129877
#        151077
#        170315
#        195359
#
# Disc length: 2896 seconds
#
# Revision: 0
# Processed by: cddbd v1.5.2PL0 Copyright (c) Steve Scherf et al.
# Submitted via: ExactAudioCopy v0.99pb5
#
DISCID=7f0b4e0a
DTITLE=Larry Tillery - Rockin' the Blues
DYEAR=2012
DGENRE=Blues
TTITLE0=All Night Long
TTITLE1=Rockin' the Blues
TTITLE2=She's My Little Baby
TTITLE3=Robert Johnson
TTITLE4=All You Did
TTITLE5=If You're Here Who's Running Hell?
TTITLE6=If I Feel Like This Tomorrow
TTITLE7=She Damn Sho' Did
TTITLE8=Texas Flood
TTITLE9=Voodoo Child (Slight Return)
EXTD=
EXTT0=
EXTT1=
EXTT2=
EXTT3=
EXTT4=
EXTT5=
EXTT6=
EXTT7=
EXTT8=
EXTT9=
PLAYORDER=
